# xmcd
#
# Track frame offsets:
#	150
#	24562
#	48152
#	77197
#	106042
#	131510
#
# Disc length: 2060 seconds
#
# Revision: 1
# Processed by: cddbd v1.5PL3 Copyright (c) Steve Scherf et al.
# Submitted via: audiograbber 1.82.01
#
DISCID=3f080a06
DTITLE=Nawal El Zoughbi - Ayza El Radd
DYEAR=1900
DGENRE=
TTITLE0=Ayza El Radd
TTITLE1=Albi Hawak
TTITLE2=Aser El Mou3jizat
TTITLE3=Ya Lail Ya Abou El Ashwag
TTITLE4=Ma 3reftech Ablak
TTITLE5=Tefrog Ktir
EXTD=
EXTT0=
EXTT1=
EXTT2=
EXTT3=
EXTT4=
EXTT5=
PLAYORDER=
